# xmcd CD database file
#
# Track frame offsets:
#	150
#	53041
#	101511
#	142677
#	186419
#	212341
#	284417
#
# Disc length: 4077 seconds
#
# Revision: 0
# Processed by: cddbd v1.5.2PL0 Copyright (c) Steve Scherf et al.
# Submitted via: CDex 1.51
#
DISCID=5e0feb07
DTITLE=Brownman Electryc Trio - Juggernaut
DYEAR=2009
DGENRE=Jazz
TTITLE0=Yesteryear - full length
TTITLE1=Stolen Moments
TTITLE2=26-2
TTITLE3=Evolution Revolution
TTITLE4=Juggernaut
TTITLE5=Red Clay
TTITLE6=Yesteryear - radio edit
EXTD=YEAR: 2009
EXTT0=
EXTT1=
EXTT2=
EXTT3=
EXTT4=
EXTT5=
EXTT6=
PLAYORDER=
